# xmcd
#
# Track frame offsets:
#	150
#	13263
#	28876
#	50076
#	59422
#	75115
#	87255
#	100663
#	110824
#	127460
#	145043
#	163803
#
# Disc length: 2358 seconds
# Revision: 1
# Processed by: cddbd v1.5.2PL0 Copyright (c) Steve Scherf et al.
# Submitted via: dBpowerAMP V12.0
#
DISCID=a709340c
DTITLE=Various Artist - The Blues [CD1 of 2)
DYEAR=1969
DGENRE=Blues
TTITLE0=Fleetwood Mac - Rollin' Man
TTITLE1=Duster Bennet - Jumping at shadows
TTITLE2=Chicken Shack - What Did You Do Last Night
TTITLE3=Eddie Boyd - The Blues Is Here To Stay
TTITLE4=Gordon Smith - Diving Duck Blues
TTITLE5=Champion Jack Dupree - A racehorse called Mae
TTITLE6=Johnny Shines - Pipeline Blues
TTITLE7=Fleetwood Mac - Long Grey Mare
TTITLE8=Sunnyland Slim - Stella Mae
TTITLE9=Chicken Shack - I wanna see my baby
TTITLE10=Curtis Jones - Gee, Pretty Baby
TTITLE11=Fleetwood Mac - Shake your money maker
EXTD=
EXTT0=
EXTT1=
EXTT2=
EXTT3=
EXTT4=
EXTT5=
EXTT6=
EXTT7=
EXTT8=
EXTT9=
EXTT10=
EXTT11=
PLAYORDER=
